<?xml version="1.0" encoding="utf-8"?>
<!-- Generator: Adobe Illustrator 27.1.1, SVG Export Plug-In . SVG Version: 6.00 Build 0)  -->
<svg version="1.1" id="Layer_1" xmlns="http://www.w3.org/2000/svg" xmlns:xlink="http://www.w3.org/1999/xlink" x="0px" y="0px"
	 viewBox="0 0 330 398" style="enable-background:new 0 0 330 398;" xml:space="preserve">
<style type="text/css">
	.st0{fill-rule:evenodd;clip-rule:evenodd;fill:#7DA87B;}
</style>
<g id="SvgjsG30977" transform="matrix(1.1159322539689929,0,0,1.1159322539689929,239.02263429543396,-1.4755118998415817)">
	<g>
		<path class="st0" d="M77.1,82.6c5.9-5.3,5.3-10.6-1.1-15.9c-32.7,6.2-236.9,87.3-241.4,103C-84.9,140.5-3.8,111.7,77.1,82.6z"/>
		<path class="st0" d="M20,18.2c-3.6-24.6-30.5,3.9-49.8,15.7c-19.9,15.4-36.4,26.6-56.8,42c-19.3,14.8-100.2,71.3-104.6,88.7
			L20,18.2z"/>
		<path class="st0" d="M-114.3,201.2c20.7-8.1,17.9-36.6,56.8-22.1c3.6,5.9,0,10.9-4.8,16.8c24.3-9.5,39.5-21.5,57.6,9.8
			c14.3-4.7,43.1,7,45.3-0.6c-11.2-6.1-23-11.2-40.3-11.2c-5.6-5.3-11.5-10.4-17.3-15.7c-9-2.8-18.2-2.5-27.4,0.8
			c-9.5-6.2-14.6-13.1-30.8-13.1c-16,0-21,7-30.2,13.1c-24.6,0-26.8,0.3-45,16.8c-11.7,3.4-23.8,6.4-35.5,9.8
			c0.5,1.7,0.8,3.4,1.4,4.7c13.1-1.9,26.3-3.9,39.4-5.9C-140.3,186.7-103.9,176-114.3,201.2z"/>
		<path class="st0" d="M-214.4,215.8c-1.7,64.9,39.7,125.6,83.4,149.1H-3.8c0.3-0.9,45-38.6,55.9-58.2c12.3-22.7,23-58.2,23-90.9
			H-214.4z"/>
	</g>
</g>
</svg>
