<?xml version="1.0" encoding="utf-8"?>
<!-- Generator: Adobe Illustrator 27.1.1, SVG Export Plug-In . SVG Version: 6.00 Build 0)  -->
<svg version="1.1" id="Layer_1" xmlns="http://www.w3.org/2000/svg" xmlns:xlink="http://www.w3.org/1999/xlink" x="0px" y="0px"
	 viewBox="0 0 32 32" style="enable-background:new 0 0 32 32;" xml:space="preserve">
<style type="text/css">
	.st0{fill:#51804F;}
</style>
<g id="Layer_2_00000090258299747069197110000003793235644018008255_">
	<path class="st0" d="M10.1,23c0.4-0.4,0.4-1,0-1.4L5.5,17H29c0.6,0,1-0.4,1-1c0-0.6-0.4-1-1-1H5.5l4.6-4.6c0.4-0.4,0.4-1,0-1.4
		s-1-0.4-1.4,0l-6.4,6.4c-0.3,0.4-0.3,0.9,0,1.3L8.7,23C9.1,23.4,9.7,23.4,10.1,23C10.1,23,10.1,23,10.1,23z"/>
</g>
</svg>
