<?xml version="1.0" encoding="utf-8"?>
<!-- Generator: Adobe Illustrator 27.1.1, SVG Export Plug-In . SVG Version: 6.00 Build 0)  -->
<svg version="1.1" id="Layer_1" xmlns="http://www.w3.org/2000/svg" xmlns:xlink="http://www.w3.org/1999/xlink" x="0px" y="0px"
	 viewBox="0 0 32 32" style="enable-background:new 0 0 32 32;" xml:space="preserve">
<style type="text/css">
	.st0{fill:#7DA87B;}
	.st1{fill:none;}
</style>
<g id="Layer_2_00000104673782669794482380000014429544212595965577_">
	<path class="st0" d="M12,25c-0.3,0-0.5-0.1-0.7-0.3c-0.4-0.4-0.4-1,0-1.4c0,0,0,0,0,0l7.3-7.3l-7.3-7.3c-0.4-0.4-0.4-1,0-1.4
		s1-0.4,1.4,0l8,8c0.4,0.4,0.4,1,0,1.4c0,0,0,0,0,0l-8,8C12.5,24.9,12.3,25,12,25z"/>
</g>
<g id="frame">
	<rect class="st1" width="32" height="32"/>
</g>
</svg>
